<?xml version="1.0" encoding="utf-8" standalone="no"?>
<!DOCTYPE svg PUBLIC "-//W3C//DTD SVG 1.1//EN"
  "http://www.w3.org/Graphics/SVG/1.1/DTD/svg11.dtd">
<!-- Created with matplotlib (https://matplotlib.org/) -->
<svg height="262.620563pt" version="1.1" viewBox="0 0 584.538125 262.620563" width="584.538125pt" xmlns="http://www.w3.org/2000/svg" xmlns:xlink="http://www.w3.org/1999/xlink">
 <defs>
  <style type="text/css">
*{stroke-linecap:butt;stroke-linejoin:round;}
  </style>
 </defs>
 <g id="figure_1">
  <g id="patch_1">
   <path d="M 0 262.620563 
L 584.538125 262.620563 
L 584.538125 0 
L 0 0 
z
" style="fill:#ffffff;"/>
  </g>
  <g id="axes_1">
   <g id="patch_2">
    <path d="M 20.878125 241.742437 
L 573.838125 241.742437 
L 573.838125 11.342437 
L 20.878125 11.342437 
z
" style="fill:#ffffff;"/>
   </g>
   <g id="matplotlib.axis_1">
    <g id="text_1">
     <!-- Axis Container -->
     <defs>
      <path d="M 34.1875 63.1875 
L 20.796875 26.90625 
L 47.609375 26.90625 
z
M 28.609375 72.90625 
L 39.796875 72.90625 
L 67.578125 0 
L 57.328125 0 
L 50.6875 18.703125 
L 17.828125 18.703125 
L 11.1875 0 
L 0.78125 0 
z
" id="DejaVuSans-65"/>
      <path d="M 54.890625 54.6875 
L 35.109375 28.078125 
L 55.90625 0 
L 45.3125 0 
L 29.390625 21.484375 
L 13.484375 0 
L 2.875 0 
L 24.125 28.609375 
L 4.6875 54.6875 
L 15.28125 54.6875 
L 29.78125 35.203125 
L 44.28125 54.6875 
z
" id="DejaVuSans-120"/>
      <path d="M 9.421875 54.6875 
L 18.40625 54.6875 
L 18.40625 0 
L 9.421875 0 
z
M 9.421875 75.984375 
L 18.40625 75.984375 
L 18.40625 64.59375 
L 9.421875 64.59375 
z
" id="DejaVuSans-105"/>
      <path d="M 44.28125 53.078125 
L 44.28125 44.578125 
Q 40.484375 46.53125 36.375 47.5 
Q 32.28125 48.484375 27.875 48.484375 
Q 21.1875 48.484375 17.84375 46.4375 
Q 14.5 44.390625 14.5 40.28125 
Q 14.5 37.15625 16.890625 35.375 
Q 19.28125 33.59375 26.515625 31.984375 
L 29.59375 31.296875 
Q 39.15625 29.25 43.1875 25.515625 
Q 47.21875 21.78125 47.21875 15.09375 
Q 47.21875 7.46875 41.1875 3.015625 
Q 35.15625 -1.421875 24.609375 -1.421875 
Q 20.21875 -1.421875 15.453125 -0.5625 
Q 10.6875 0.296875 5.421875 2 
L 5.421875 11.28125 
Q 10.40625 8.6875 15.234375 7.390625 
Q 20.0625 6.109375 24.8125 6.109375 
Q 31.15625 6.109375 34.5625 8.28125 
Q 37.984375 10.453125 37.984375 14.40625 
Q 37.984375 18.0625 35.515625 20.015625 
Q 33.0625 21.96875 24.703125 23.78125 
L 21.578125 24.515625 
Q 13.234375 26.265625 9.515625 29.90625 
Q 5.8125 33.546875 5.8125 39.890625 
Q 5.8125 47.609375 11.28125 51.796875 
Q 16.75 56 26.8125 56 
Q 31.78125 56 36.171875 55.265625 
Q 40.578125 54.546875 44.28125 53.078125 
z
" id="DejaVuSans-115"/>
      <path id="DejaVuSans-32"/>
      <path d="M 64.40625 67.28125 
L 64.40625 56.890625 
Q 59.421875 61.53125 53.78125 63.8125 
Q 48.140625 66.109375 41.796875 66.109375 
Q 29.296875 66.109375 22.65625 58.46875 
Q 16.015625 50.828125 16.015625 36.375 
Q 16.015625 21.96875 22.65625 14.328125 
Q 29.296875 6.6875 41.796875 6.6875 
Q 48.140625 6.6875 53.78125 8.984375 
Q 59.421875 11.28125 64.40625 15.921875 
L 64.40625 5.609375 
Q 59.234375 2.09375 53.4375 0.328125 
Q 47.65625 -1.421875 41.21875 -1.421875 
Q 24.65625 -1.421875 15.125 8.703125 
Q 5.609375 18.84375 5.609375 36.375 
Q 5.609375 53.953125 15.125 64.078125 
Q 24.65625 74.21875 41.21875 74.21875 
Q 47.75 74.21875 53.53125 72.484375 
Q 59.328125 70.75 64.40625 67.28125 
z
" id="DejaVuSans-67"/>
      <path d="M 30.609375 48.390625 
Q 23.390625 48.390625 19.1875 42.75 
Q 14.984375 37.109375 14.984375 27.296875 
Q 14.984375 17.484375 19.15625 11.84375 
Q 23.34375 6.203125 30.609375 6.203125 
Q 37.796875 6.203125 41.984375 11.859375 
Q 46.1875 17.53125 46.1875 27.296875 
Q 46.1875 37.015625 41.984375 42.703125 
Q 37.796875 48.390625 30.609375 48.390625 
z
M 30.609375 56 
Q 42.328125 56 49.015625 48.375 
Q 55.71875 40.765625 55.71875 27.296875 
Q 55.71875 13.875 49.015625 6.21875 
Q 42.328125 -1.421875 30.609375 -1.421875 
Q 18.84375 -1.421875 12.171875 6.21875 
Q 5.515625 13.875 5.515625 27.296875 
Q 5.515625 40.765625 12.171875 48.375 
Q 18.84375 56 30.609375 56 
z
" id="DejaVuSans-111"/>
      <path d="M 54.890625 33.015625 
L 54.890625 0 
L 45.90625 0 
L 45.90625 32.71875 
Q 45.90625 40.484375 42.875 44.328125 
Q 39.84375 48.1875 33.796875 48.1875 
Q 26.515625 48.1875 22.3125 43.546875 
Q 18.109375 38.921875 18.109375 30.90625 
L 18.109375 0 
L 9.078125 0 
L 9.078125 54.6875 
L 18.109375 54.6875 
L 18.109375 46.1875 
Q 21.34375 51.125 25.703125 53.5625 
Q 30.078125 56 35.796875 56 
Q 45.21875 56 50.046875 50.171875 
Q 54.890625 44.34375 54.890625 33.015625 
z
" id="DejaVuSans-110"/>
      <path d="M 18.3125 70.21875 
L 18.3125 54.6875 
L 36.8125 54.6875 
L 36.8125 47.703125 
L 18.3125 47.703125 
L 18.3125 18.015625 
Q 18.3125 11.328125 20.140625 9.421875 
Q 21.96875 7.515625 27.59375 7.515625 
L 36.8125 7.515625 
L 36.8125 0 
L 27.59375 0 
Q 17.1875 0 13.234375 3.875 
Q 9.28125 7.765625 9.28125 18.015625 
L 9.28125 47.703125 
L 2.6875 47.703125 
L 2.6875 54.6875 
L 9.28125 54.6875 
L 9.28125 70.21875 
z
" id="DejaVuSans-116"/>
      <path d="M 34.28125 27.484375 
Q 23.390625 27.484375 19.1875 25 
Q 14.984375 22.515625 14.984375 16.5 
Q 14.984375 11.71875 18.140625 8.90625 
Q 21.296875 6.109375 26.703125 6.109375 
Q 34.1875 6.109375 38.703125 11.40625 
Q 43.21875 16.703125 43.21875 25.484375 
L 43.21875 27.484375 
z
M 52.203125 31.203125 
L 52.203125 0 
L 43.21875 0 
L 43.21875 8.296875 
Q 40.140625 3.328125 35.546875 0.953125 
Q 30.953125 -1.421875 24.3125 -1.421875 
Q 15.921875 -1.421875 10.953125 3.296875 
Q 6 8.015625 6 15.921875 
Q 6 25.140625 12.171875 29.828125 
Q 18.359375 34.515625 30.609375 34.515625 
L 43.21875 34.515625 
L 43.21875 35.40625 
Q 43.21875 41.609375 39.140625 45 
Q 35.0625 48.390625 27.6875 48.390625 
Q 23 48.390625 18.546875 47.265625 
Q 14.109375 46.140625 10.015625 43.890625 
L 10.015625 52.203125 
Q 14.9375 54.109375 19.578125 55.046875 
Q 24.21875 56 28.609375 56 
Q 40.484375 56 46.34375 49.84375 
Q 52.203125 43.703125 52.203125 31.203125 
z
" id="DejaVuSans-97"/>
      <path d="M 56.203125 29.59375 
L 56.203125 25.203125 
L 14.890625 25.203125 
Q 15.484375 15.921875 20.484375 11.0625 
Q 25.484375 6.203125 34.421875 6.203125 
Q 39.59375 6.203125 44.453125 7.46875 
Q 49.3125 8.734375 54.109375 11.28125 
L 54.109375 2.78125 
Q 49.265625 0.734375 44.1875 -0.34375 
Q 39.109375 -1.421875 33.890625 -1.421875 
Q 20.796875 -1.421875 13.15625 6.1875 
Q 5.515625 13.8125 5.515625 26.8125 
Q 5.515625 40.234375 12.765625 48.109375 
Q 20.015625 56 32.328125 56 
Q 43.359375 56 49.78125 48.890625 
Q 56.203125 41.796875 56.203125 29.59375 
z
M 47.21875 32.234375 
Q 47.125 39.59375 43.09375 43.984375 
Q 39.0625 48.390625 32.421875 48.390625 
Q 24.90625 48.390625 20.390625 44.140625 
Q 15.875 39.890625 15.1875 32.171875 
z
" id="DejaVuSans-101"/>
      <path d="M 41.109375 46.296875 
Q 39.59375 47.171875 37.8125 47.578125 
Q 36.03125 48 33.890625 48 
Q 26.265625 48 22.1875 43.046875 
Q 18.109375 38.09375 18.109375 28.8125 
L 18.109375 0 
L 9.078125 0 
L 9.078125 54.6875 
L 18.109375 54.6875 
L 18.109375 46.1875 
Q 20.953125 51.171875 25.484375 53.578125 
Q 30.03125 56 36.53125 56 
Q 37.453125 56 38.578125 55.875 
Q 39.703125 55.765625 41.0625 55.515625 
z
" id="DejaVuSans-114"/>
     </defs>
     <g transform="translate(260.962031 253.340875)scale(0.1 -0.1)">
      <use xlink:href="#DejaVuSans-65"/>
      <use x="68.408203" xlink:href="#DejaVuSans-120"/>
      <use x="127.587891" xlink:href="#DejaVuSans-105"/>
      <use x="155.371094" xlink:href="#DejaVuSans-115"/>
      <use x="207.470703" xlink:href="#DejaVuSans-32"/>
      <use x="239.257812" xlink:href="#DejaVuSans-67"/>
      <use x="309.082031" xlink:href="#DejaVuSans-111"/>
      <use x="370.263672" xlink:href="#DejaVuSans-110"/>
      <use x="433.642578" xlink:href="#DejaVuSans-116"/>
      <use x="472.851562" xlink:href="#DejaVuSans-97"/>
      <use x="534.130859" xlink:href="#DejaVuSans-105"/>
      <use x="561.914062" xlink:href="#DejaVuSans-110"/>
      <use x="625.292969" xlink:href="#DejaVuSans-101"/>
      <use x="686.816406" xlink:href="#DejaVuSans-114"/>
     </g>
    </g>
   </g>
   <g id="matplotlib.axis_2">
    <g id="text_2">
     <!-- Axis Container -->
     <g transform="translate(14.798438 162.938531)rotate(-90)scale(0.1 -0.1)">
      <use xlink:href="#DejaVuSans-65"/>
      <use x="68.408203" xlink:href="#DejaVuSans-120"/>
      <use x="127.587891" xlink:href="#DejaVuSans-105"/>
      <use x="155.371094" xlink:href="#DejaVuSans-115"/>
      <use x="207.470703" xlink:href="#DejaVuSans-32"/>
      <use x="239.257812" xlink:href="#DejaVuSans-67"/>
      <use x="309.082031" xlink:href="#DejaVuSans-111"/>
      <use x="370.263672" xlink:href="#DejaVuSans-110"/>
      <use x="433.642578" xlink:href="#DejaVuSans-116"/>
      <use x="472.851562" xlink:href="#DejaVuSans-97"/>
      <use x="534.130859" xlink:href="#DejaVuSans-105"/>
      <use x="561.914062" xlink:href="#DejaVuSans-110"/>
      <use x="625.292969" xlink:href="#DejaVuSans-101"/>
      <use x="686.816406" xlink:href="#DejaVuSans-114"/>
     </g>
    </g>
   </g>
   <g id="line2d_1">
    <path clip-path="url(#p2d08e00a52)" d="M 24.361773 167.420209 
L 35.973933 187.628503 
L 47.586093 133.632772 
L 59.198253 67.784734 
L 70.810413 159.48767 
L 82.422573 181.055481 
L 94.034733 153.042677 
L 105.646893 179.874477 
L 117.259053 159.125505 
L 128.871213 79.354217 
L 140.483373 112.403174 
L 152.095533 104.799561 
L 163.707693 188.416197 
L 175.319853 149.848418 
L 186.932013 138.993552 
L 198.544173 86.769327 
L 210.156333 69.464605 
L 221.768493 96.002295 
L 233.380653 194.409376 
L 244.992813 139.474196 
L 256.604973 159.578308 
L 268.217133 115.062231 
L 279.829293 95.257805 
L 291.441453 63.848384 
L 303.053613 143.057405 
L 314.665773 144.841526 
L 326.277933 61.128918 
L 337.890093 143.728092 
L 349.502253 82.953825 
L 361.114413 81.539039 
L 372.726573 188.085363 
L 384.338733 102.378091 
L 395.950893 115.619672 
L 407.563053 181.339045 
L 419.175213 115.879218 
L 430.787373 66.140914 
L 442.399533 116.069504 
L 454.011693 178.505215 
L 465.623853 183.950643 
L 477.236013 144.903438 
L 488.848173 136.950031 
L 500.460333 202.282213 
L 512.072493 84.509564 
L 523.684653 127.921767 
L 535.296813 192.605163 
L 546.908973 160.557442 
L 558.521133 87.750475 
L 570.133293 147.99186 
L 581.745453 135.560969 
L 585.538125 130.417692 
" style="fill:none;stroke:#d3d3d3;stroke-linecap:square;stroke-opacity:0.85;stroke-width:1.5;"/>
    <defs>
     <path d="M 0 3 
C 0.795609 3 1.55874 2.683901 2.12132 2.12132 
C 2.683901 1.55874 3 0.795609 3 0 
C 3 -0.795609 2.683901 -1.55874 2.12132 -2.12132 
C 1.55874 -2.683901 0.795609 -3 0 -3 
C -0.795609 -3 -1.55874 -2.683901 -2.12132 -2.12132 
C -2.683901 -1.55874 -3 -0.795609 -3 0 
C -3 0.795609 -2.683901 1.55874 -2.12132 2.12132 
C -1.55874 2.683901 -0.795609 3 0 3 
z
" id="m816b8b6f02" style="stroke:#d3d3d3;stroke-opacity:0.85;"/>
    </defs>
    <g clip-path="url(#p2d08e00a52)">
     <use style="fill:#d3d3d3;fill-opacity:0.85;stroke:#d3d3d3;stroke-opacity:0.85;" x="24.361773" xlink:href="#m816b8b6f02" y="167.420209"/>
     <use style="fill:#d3d3d3;fill-opacity:0.85;stroke:#d3d3d3;stroke-opacity:0.85;" x="35.973933" xlink:href="#m816b8b6f02" y="187.628503"/>
     <use style="fill:#d3d3d3;fill-opacity:0.85;stroke:#d3d3d3;stroke-opacity:0.85;" x="47.586093" xlink:href="#m816b8b6f02" y="133.632772"/>
     <use style="fill:#d3d3d3;fill-opacity:0.85;stroke:#d3d3d3;stroke-opacity:0.85;" x="59.198253" xlink:href="#m816b8b6f02" y="67.784734"/>
     <use style="fill:#d3d3d3;fill-opacity:0.85;stroke:#d3d3d3;stroke-opacity:0.85;" x="70.810413" xlink:href="#m816b8b6f02" y="159.48767"/>
     <use style="fill:#d3d3d3;fill-opacity:0.85;stroke:#d3d3d3;stroke-opacity:0.85;" x="82.422573" xlink:href="#m816b8b6f02" y="181.055481"/>
     <use style="fill:#d3d3d3;fill-opacity:0.85;stroke:#d3d3d3;stroke-opacity:0.85;" x="94.034733" xlink:href="#m816b8b6f02" y="153.042677"/>
     <use style="fill:#d3d3d3;fill-opacity:0.85;stroke:#d3d3d3;stroke-opacity:0.85;" x="105.646893" xlink:href="#m816b8b6f02" y="179.874477"/>
     <use style="fill:#d3d3d3;fill-opacity:0.85;stroke:#d3d3d3;stroke-opacity:0.85;" x="117.259053" xlink:href="#m816b8b6f02" y="159.125505"/>
     <use style="fill:#d3d3d3;fill-opacity:0.85;stroke:#d3d3d3;stroke-opacity:0.85;" x="128.871213" xlink:href="#m816b8b6f02" y="79.354217"/>
     <use style="fill:#d3d3d3;fill-opacity:0.85;stroke:#d3d3d3;stroke-opacity:0.85;" x="140.483373" xlink:href="#m816b8b6f02" y="112.403174"/>
     <use style="fill:#d3d3d3;fill-opacity:0.85;stroke:#d3d3d3;stroke-opacity:0.85;" x="152.095533" xlink:href="#m816b8b6f02" y="104.799561"/>
     <use style="fill:#d3d3d3;fill-opacity:0.85;stroke:#d3d3d3;stroke-opacity:0.85;" x="163.707693" xlink:href="#m816b8b6f02" y="188.416197"/>
     <use style="fill:#d3d3d3;fill-opacity:0.85;stroke:#d3d3d3;stroke-opacity:0.85;" x="175.319853" xlink:href="#m816b8b6f02" y="149.848418"/>
     <use style="fill:#d3d3d3;fill-opacity:0.85;stroke:#d3d3d3;stroke-opacity:0.85;" x="186.932013" xlink:href="#m816b8b6f02" y="138.993552"/>
     <use style="fill:#d3d3d3;fill-opacity:0.85;stroke:#d3d3d3;stroke-opacity:0.85;" x="198.544173" xlink:href="#m816b8b6f02" y="86.769327"/>
     <use style="fill:#d3d3d3;fill-opacity:0.85;stroke:#d3d3d3;stroke-opacity:0.85;" x="210.156333" xlink:href="#m816b8b6f02" y="69.464605"/>
     <use style="fill:#d3d3d3;fill-opacity:0.85;stroke:#d3d3d3;stroke-opacity:0.85;" x="221.768493" xlink:href="#m816b8b6f02" y="96.002295"/>
     <use style="fill:#d3d3d3;fill-opacity:0.85;stroke:#d3d3d3;stroke-opacity:0.85;" x="233.380653" xlink:href="#m816b8b6f02" y="194.409376"/>
     <use style="fill:#d3d3d3;fill-opacity:0.85;stroke:#d3d3d3;stroke-opacity:0.85;" x="244.992813" xlink:href="#m816b8b6f02" y="139.474196"/>
     <use style="fill:#d3d3d3;fill-opacity:0.85;stroke:#d3d3d3;stroke-opacity:0.85;" x="256.604973" xlink:href="#m816b8b6f02" y="159.578308"/>
     <use style="fill:#d3d3d3;fill-opacity:0.85;stroke:#d3d3d3;stroke-opacity:0.85;" x="268.217133" xlink:href="#m816b8b6f02" y="115.062231"/>
     <use style="fill:#d3d3d3;fill-opacity:0.85;stroke:#d3d3d3;stroke-opacity:0.85;" x="279.829293" xlink:href="#m816b8b6f02" y="95.257805"/>
     <use style="fill:#d3d3d3;fill-opacity:0.85;stroke:#d3d3d3;stroke-opacity:0.85;" x="291.441453" xlink:href="#m816b8b6f02" y="63.848384"/>
     <use style="fill:#d3d3d3;fill-opacity:0.85;stroke:#d3d3d3;stroke-opacity:0.85;" x="303.053613" xlink:href="#m816b8b6f02" y="143.057405"/>
     <use style="fill:#d3d3d3;fill-opacity:0.85;stroke:#d3d3d3;stroke-opacity:0.85;" x="314.665773" xlink:href="#m816b8b6f02" y="144.841526"/>
     <use style="fill:#d3d3d3;fill-opacity:0.85;stroke:#d3d3d3;stroke-opacity:0.85;" x="326.277933" xlink:href="#m816b8b6f02" y="61.128918"/>
     <use style="fill:#d3d3d3;fill-opacity:0.85;stroke:#d3d3d3;stroke-opacity:0.85;" x="337.890093" xlink:href="#m816b8b6f02" y="143.728092"/>
     <use style="fill:#d3d3d3;fill-opacity:0.85;stroke:#d3d3d3;stroke-opacity:0.85;" x="349.502253" xlink:href="#m816b8b6f02" y="82.953825"/>
     <use style="fill:#d3d3d3;fill-opacity:0.85;stroke:#d3d3d3;stroke-opacity:0.85;" x="361.114413" xlink:href="#m816b8b6f02" y="81.539039"/>
     <use style="fill:#d3d3d3;fill-opacity:0.85;stroke:#d3d3d3;stroke-opacity:0.85;" x="372.726573" xlink:href="#m816b8b6f02" y="188.085363"/>
     <use style="fill:#d3d3d3;fill-opacity:0.85;stroke:#d3d3d3;stroke-opacity:0.85;" x="384.338733" xlink:href="#m816b8b6f02" y="102.378091"/>
     <use style="fill:#d3d3d3;fill-opacity:0.85;stroke:#d3d3d3;stroke-opacity:0.85;" x="395.950893" xlink:href="#m816b8b6f02" y="115.619672"/>
     <use style="fill:#d3d3d3;fill-opacity:0.85;stroke:#d3d3d3;stroke-opacity:0.85;" x="407.563053" xlink:href="#m816b8b6f02" y="181.339045"/>
     <use style="fill:#d3d3d3;fill-opacity:0.85;stroke:#d3d3d3;stroke-opacity:0.85;" x="419.175213" xlink:href="#m816b8b6f02" y="115.879218"/>
     <use style="fill:#d3d3d3;fill-opacity:0.85;stroke:#d3d3d3;stroke-opacity:0.85;" x="430.787373" xlink:href="#m816b8b6f02" y="66.140914"/>
     <use style="fill:#d3d3d3;fill-opacity:0.85;stroke:#d3d3d3;stroke-opacity:0.85;" x="442.399533" xlink:href="#m816b8b6f02" y="116.069504"/>
     <use style="fill:#d3d3d3;fill-opacity:0.85;stroke:#d3d3d3;stroke-opacity:0.85;" x="454.011693" xlink:href="#m816b8b6f02" y="178.505215"/>
     <use style="fill:#d3d3d3;fill-opacity:0.85;stroke:#d3d3d3;stroke-opacity:0.85;" x="465.623853" xlink:href="#m816b8b6f02" y="183.950643"/>
     <use style="fill:#d3d3d3;fill-opacity:0.85;stroke:#d3d3d3;stroke-opacity:0.85;" x="477.236013" xlink:href="#m816b8b6f02" y="144.903438"/>
     <use style="fill:#d3d3d3;fill-opacity:0.85;stroke:#d3d3d3;stroke-opacity:0.85;" x="488.848173" xlink:href="#m816b8b6f02" y="136.950031"/>
     <use style="fill:#d3d3d3;fill-opacity:0.85;stroke:#d3d3d3;stroke-opacity:0.85;" x="500.460333" xlink:href="#m816b8b6f02" y="202.282213"/>
     <use style="fill:#d3d3d3;fill-opacity:0.85;stroke:#d3d3d3;stroke-opacity:0.85;" x="512.072493" xlink:href="#m816b8b6f02" y="84.509564"/>
     <use style="fill:#d3d3d3;fill-opacity:0.85;stroke:#d3d3d3;stroke-opacity:0.85;" x="523.684653" xlink:href="#m816b8b6f02" y="127.921767"/>
     <use style="fill:#d3d3d3;fill-opacity:0.85;stroke:#d3d3d3;stroke-opacity:0.85;" x="535.296813" xlink:href="#m816b8b6f02" y="192.605163"/>
     <use style="fill:#d3d3d3;fill-opacity:0.85;stroke:#d3d3d3;stroke-opacity:0.85;" x="546.908973" xlink:href="#m816b8b6f02" y="160.557442"/>
     <use style="fill:#d3d3d3;fill-opacity:0.85;stroke:#d3d3d3;stroke-opacity:0.85;" x="558.521133" xlink:href="#m816b8b6f02" y="87.750475"/>
     <use style="fill:#d3d3d3;fill-opacity:0.85;stroke:#d3d3d3;stroke-opacity:0.85;" x="570.133293" xlink:href="#m816b8b6f02" y="147.99186"/>
     <use style="fill:#d3d3d3;fill-opacity:0.85;stroke:#d3d3d3;stroke-opacity:0.85;" x="581.745453" xlink:href="#m816b8b6f02" y="135.560969"/>
     <use style="fill:#d3d3d3;fill-opacity:0.85;stroke:#d3d3d3;stroke-opacity:0.85;" x="593.357613" xlink:href="#m816b8b6f02" y="119.813613"/>
    </g>
   </g>
   <g id="patch_3">
    <path d="M 20.878125 241.742437 
L 20.878125 11.342437 
" style="fill:none;stroke:#000000;stroke-linecap:square;stroke-linejoin:miter;stroke-width:0.8;"/>
   </g>
   <g id="patch_4">
    <path d="M 573.838125 241.742437 
L 573.838125 11.342437 
" style="fill:none;stroke:#000000;stroke-linecap:square;stroke-linejoin:miter;stroke-width:0.8;"/>
   </g>
   <g id="patch_5">
    <path d="M 20.878125 241.742437 
L 573.838125 241.742437 
" style="fill:none;stroke:#000000;stroke-linecap:square;stroke-linejoin:miter;stroke-width:0.8;"/>
   </g>
   <g id="patch_6">
    <path d="M 20.878125 11.342437 
L 573.838125 11.342437 
" style="fill:none;stroke:#000000;stroke-linecap:square;stroke-linejoin:miter;stroke-width:0.8;"/>
   </g>
   <g id="patch_7">
    <path d="M 22.878698 241.742437 
Q 294.592819 241.742437 565.188906 241.742437 
" style="fill:none;stroke:#000000;stroke-linecap:round;"/>
    <path d="M 561.188906 239.742437 
L 565.188906 241.742437 
L 561.188906 243.742437 
" style="fill:none;stroke:#000000;stroke-linecap:round;"/>
   </g>
   <g id="patch_8">
    <path d="M 20.878125 227.644935 
Q 20.878125 123.374419 20.878125 20.221936 
" style="fill:none;stroke:#000000;stroke-linecap:round;"/>
    <path d="M 18.878125 24.221936 
L 20.878125 20.221936 
L 22.878125 24.221936 
" style="fill:none;stroke:#000000;stroke-linecap:round;"/>
   </g>
   <g id="text_3">
    <g id="patch_9">
     <path d="M 437.753675 20.878125 
L 521.916175 20.878125 
L 521.916175 3.2 
L 437.753675 3.2 
z
" style="fill:#ffffff;stroke:#ffffff;stroke-linejoin:miter;"/>
    </g>
    <!-- Axes Container -->
    <g transform="translate(441.753675 14.798438)scale(0.1 -0.1)">
     <use xlink:href="#DejaVuSans-65"/>
     <use x="68.408203" xlink:href="#DejaVuSans-120"/>
     <use x="127.541016" xlink:href="#DejaVuSans-101"/>
     <use x="189.064453" xlink:href="#DejaVuSans-115"/>
     <use x="241.164062" xlink:href="#DejaVuSans-32"/>
     <use x="272.951172" xlink:href="#DejaVuSans-67"/>
     <use x="342.775391" xlink:href="#DejaVuSans-111"/>
     <use x="403.957031" xlink:href="#DejaVuSans-110"/>
     <use x="467.335938" xlink:href="#DejaVuSans-116"/>
     <use x="506.544922" xlink:href="#DejaVuSans-97"/>
     <use x="567.824219" xlink:href="#DejaVuSans-105"/>
     <use x="595.607422" xlink:href="#DejaVuSans-110"/>
     <use x="658.986328" xlink:href="#DejaVuSans-101"/>
     <use x="720.509766" xlink:href="#DejaVuSans-114"/>
    </g>
   </g>
  </g>
 </g>
 <defs>
  <clipPath id="p2d08e00a52">
   <rect height="230.4" width="552.96" x="20.878125" y="11.342437"/>
  </clipPath>
 </defs>
</svg>
