<?xml version="1.0" encoding="utf-8" standalone="no"?>
<!DOCTYPE svg PUBLIC "-//W3C//DTD SVG 1.1//EN"
  "http://www.w3.org/Graphics/SVG/1.1/DTD/svg11.dtd">
<!-- Created with matplotlib (https://matplotlib.org/) -->
<svg height="149.148563pt" version="1.1" viewBox="0 0 308.058125 149.148563" width="308.058125pt" xmlns="http://www.w3.org/2000/svg" xmlns:xlink="http://www.w3.org/1999/xlink">
 <defs>
  <style type="text/css">
*{stroke-linecap:butt;stroke-linejoin:round;}
  </style>
 </defs>
 <g id="figure_1">
  <g id="patch_1">
   <path d="M 0 149.148563 
L 308.058125 149.148563 
L 308.058125 0 
L 0 0 
z
" style="fill:#ffffff;"/>
  </g>
  <g id="axes_1">
   <g id="patch_2">
    <path d="M 20.878125 128.270438 
L 297.358125 128.270438 
L 297.358125 13.070438 
L 20.878125 13.070438 
z
" style="fill:#ffffff;"/>
   </g>
   <g id="matplotlib.axis_1">
    <g id="text_1">
     <!-- Axis Container -->
     <defs>
      <path d="M 34.1875 63.1875 
L 20.796875 26.90625 
L 47.609375 26.90625 
z
M 28.609375 72.90625 
L 39.796875 72.90625 
L 67.578125 0 
L 57.328125 0 
L 50.6875 18.703125 
L 17.828125 18.703125 
L 11.1875 0 
L 0.78125 0 
z
" id="DejaVuSans-65"/>
      <path d="M 54.890625 54.6875 
L 35.109375 28.078125 
L 55.90625 0 
L 45.3125 0 
L 29.390625 21.484375 
L 13.484375 0 
L 2.875 0 
L 24.125 28.609375 
L 4.6875 54.6875 
L 15.28125 54.6875 
L 29.78125 35.203125 
L 44.28125 54.6875 
z
" id="DejaVuSans-120"/>
      <path d="M 9.421875 54.6875 
L 18.40625 54.6875 
L 18.40625 0 
L 9.421875 0 
z
M 9.421875 75.984375 
L 18.40625 75.984375 
L 18.40625 64.59375 
L 9.421875 64.59375 
z
" id="DejaVuSans-105"/>
      <path d="M 44.28125 53.078125 
L 44.28125 44.578125 
Q 40.484375 46.53125 36.375 47.5 
Q 32.28125 48.484375 27.875 48.484375 
Q 21.1875 48.484375 17.84375 46.4375 
Q 14.5 44.390625 14.5 40.28125 
Q 14.5 37.15625 16.890625 35.375 
Q 19.28125 33.59375 26.515625 31.984375 
L 29.59375 31.296875 
Q 39.15625 29.25 43.1875 25.515625 
Q 47.21875 21.78125 47.21875 15.09375 
Q 47.21875 7.46875 41.1875 3.015625 
Q 35.15625 -1.421875 24.609375 -1.421875 
Q 20.21875 -1.421875 15.453125 -0.5625 
Q 10.6875 0.296875 5.421875 2 
L 5.421875 11.28125 
Q 10.40625 8.6875 15.234375 7.390625 
Q 20.0625 6.109375 24.8125 6.109375 
Q 31.15625 6.109375 34.5625 8.28125 
Q 37.984375 10.453125 37.984375 14.40625 
Q 37.984375 18.0625 35.515625 20.015625 
Q 33.0625 21.96875 24.703125 23.78125 
L 21.578125 24.515625 
Q 13.234375 26.265625 9.515625 29.90625 
Q 5.8125 33.546875 5.8125 39.890625 
Q 5.8125 47.609375 11.28125 51.796875 
Q 16.75 56 26.8125 56 
Q 31.78125 56 36.171875 55.265625 
Q 40.578125 54.546875 44.28125 53.078125 
z
" id="DejaVuSans-115"/>
      <path id="DejaVuSans-32"/>
      <path d="M 64.40625 67.28125 
L 64.40625 56.890625 
Q 59.421875 61.53125 53.78125 63.8125 
Q 48.140625 66.109375 41.796875 66.109375 
Q 29.296875 66.109375 22.65625 58.46875 
Q 16.015625 50.828125 16.015625 36.375 
Q 16.015625 21.96875 22.65625 14.328125 
Q 29.296875 6.6875 41.796875 6.6875 
Q 48.140625 6.6875 53.78125 8.984375 
Q 59.421875 11.28125 64.40625 15.921875 
L 64.40625 5.609375 
Q 59.234375 2.09375 53.4375 0.328125 
Q 47.65625 -1.421875 41.21875 -1.421875 
Q 24.65625 -1.421875 15.125 8.703125 
Q 5.609375 18.84375 5.609375 36.375 
Q 5.609375 53.953125 15.125 64.078125 
Q 24.65625 74.21875 41.21875 74.21875 
Q 47.75 74.21875 53.53125 72.484375 
Q 59.328125 70.75 64.40625 67.28125 
z
" id="DejaVuSans-67"/>
      <path d="M 30.609375 48.390625 
Q 23.390625 48.390625 19.1875 42.75 
Q 14.984375 37.109375 14.984375 27.296875 
Q 14.984375 17.484375 19.15625 11.84375 
Q 23.34375 6.203125 30.609375 6.203125 
Q 37.796875 6.203125 41.984375 11.859375 
Q 46.1875 17.53125 46.1875 27.296875 
Q 46.1875 37.015625 41.984375 42.703125 
Q 37.796875 48.390625 30.609375 48.390625 
z
M 30.609375 56 
Q 42.328125 56 49.015625 48.375 
Q 55.71875 40.765625 55.71875 27.296875 
Q 55.71875 13.875 49.015625 6.21875 
Q 42.328125 -1.421875 30.609375 -1.421875 
Q 18.84375 -1.421875 12.171875 6.21875 
Q 5.515625 13.875 5.515625 27.296875 
Q 5.515625 40.765625 12.171875 48.375 
Q 18.84375 56 30.609375 56 
z
" id="DejaVuSans-111"/>
      <path d="M 54.890625 33.015625 
L 54.890625 0 
L 45.90625 0 
L 45.90625 32.71875 
Q 45.90625 40.484375 42.875 44.328125 
Q 39.84375 48.1875 33.796875 48.1875 
Q 26.515625 48.1875 22.3125 43.546875 
Q 18.109375 38.921875 18.109375 30.90625 
L 18.109375 0 
L 9.078125 0 
L 9.078125 54.6875 
L 18.109375 54.6875 
L 18.109375 46.1875 
Q 21.34375 51.125 25.703125 53.5625 
Q 30.078125 56 35.796875 56 
Q 45.21875 56 50.046875 50.171875 
Q 54.890625 44.34375 54.890625 33.015625 
z
" id="DejaVuSans-110"/>
      <path d="M 18.3125 70.21875 
L 18.3125 54.6875 
L 36.8125 54.6875 
L 36.8125 47.703125 
L 18.3125 47.703125 
L 18.3125 18.015625 
Q 18.3125 11.328125 20.140625 9.421875 
Q 21.96875 7.515625 27.59375 7.515625 
L 36.8125 7.515625 
L 36.8125 0 
L 27.59375 0 
Q 17.1875 0 13.234375 3.875 
Q 9.28125 7.765625 9.28125 18.015625 
L 9.28125 47.703125 
L 2.6875 47.703125 
L 2.6875 54.6875 
L 9.28125 54.6875 
L 9.28125 70.21875 
z
" id="DejaVuSans-116"/>
      <path d="M 34.28125 27.484375 
Q 23.390625 27.484375 19.1875 25 
Q 14.984375 22.515625 14.984375 16.5 
Q 14.984375 11.71875 18.140625 8.90625 
Q 21.296875 6.109375 26.703125 6.109375 
Q 34.1875 6.109375 38.703125 11.40625 
Q 43.21875 16.703125 43.21875 25.484375 
L 43.21875 27.484375 
z
M 52.203125 31.203125 
L 52.203125 0 
L 43.21875 0 
L 43.21875 8.296875 
Q 40.140625 3.328125 35.546875 0.953125 
Q 30.953125 -1.421875 24.3125 -1.421875 
Q 15.921875 -1.421875 10.953125 3.296875 
Q 6 8.015625 6 15.921875 
Q 6 25.140625 12.171875 29.828125 
Q 18.359375 34.515625 30.609375 34.515625 
L 43.21875 34.515625 
L 43.21875 35.40625 
Q 43.21875 41.609375 39.140625 45 
Q 35.0625 48.390625 27.6875 48.390625 
Q 23 48.390625 18.546875 47.265625 
Q 14.109375 46.140625 10.015625 43.890625 
L 10.015625 52.203125 
Q 14.9375 54.109375 19.578125 55.046875 
Q 24.21875 56 28.609375 56 
Q 40.484375 56 46.34375 49.84375 
Q 52.203125 43.703125 52.203125 31.203125 
z
" id="DejaVuSans-97"/>
      <path d="M 56.203125 29.59375 
L 56.203125 25.203125 
L 14.890625 25.203125 
Q 15.484375 15.921875 20.484375 11.0625 
Q 25.484375 6.203125 34.421875 6.203125 
Q 39.59375 6.203125 44.453125 7.46875 
Q 49.3125 8.734375 54.109375 11.28125 
L 54.109375 2.78125 
Q 49.265625 0.734375 44.1875 -0.34375 
Q 39.109375 -1.421875 33.890625 -1.421875 
Q 20.796875 -1.421875 13.15625 6.1875 
Q 5.515625 13.8125 5.515625 26.8125 
Q 5.515625 40.234375 12.765625 48.109375 
Q 20.015625 56 32.328125 56 
Q 43.359375 56 49.78125 48.890625 
Q 56.203125 41.796875 56.203125 29.59375 
z
M 47.21875 32.234375 
Q 47.125 39.59375 43.09375 43.984375 
Q 39.0625 48.390625 32.421875 48.390625 
Q 24.90625 48.390625 20.390625 44.140625 
Q 15.875 39.890625 15.1875 32.171875 
z
" id="DejaVuSans-101"/>
      <path d="M 41.109375 46.296875 
Q 39.59375 47.171875 37.8125 47.578125 
Q 36.03125 48 33.890625 48 
Q 26.265625 48 22.1875 43.046875 
Q 18.109375 38.09375 18.109375 28.8125 
L 18.109375 0 
L 9.078125 0 
L 9.078125 54.6875 
L 18.109375 54.6875 
L 18.109375 46.1875 
Q 20.953125 51.171875 25.484375 53.578125 
Q 30.03125 56 36.53125 56 
Q 37.453125 56 38.578125 55.875 
Q 39.703125 55.765625 41.0625 55.515625 
z
" id="DejaVuSans-114"/>
     </defs>
     <g transform="translate(122.722031 139.868875)scale(0.1 -0.1)">
      <use xlink:href="#DejaVuSans-65"/>
      <use x="68.408203" xlink:href="#DejaVuSans-120"/>
      <use x="127.587891" xlink:href="#DejaVuSans-105"/>
      <use x="155.371094" xlink:href="#DejaVuSans-115"/>
      <use x="207.470703" xlink:href="#DejaVuSans-32"/>
      <use x="239.257812" xlink:href="#DejaVuSans-67"/>
      <use x="309.082031" xlink:href="#DejaVuSans-111"/>
      <use x="370.263672" xlink:href="#DejaVuSans-110"/>
      <use x="433.642578" xlink:href="#DejaVuSans-116"/>
      <use x="472.851562" xlink:href="#DejaVuSans-97"/>
      <use x="534.130859" xlink:href="#DejaVuSans-105"/>
      <use x="561.914062" xlink:href="#DejaVuSans-110"/>
      <use x="625.292969" xlink:href="#DejaVuSans-101"/>
      <use x="686.816406" xlink:href="#DejaVuSans-114"/>
     </g>
    </g>
   </g>
   <g id="matplotlib.axis_2">
    <g id="text_2">
     <!-- Axis Container -->
     <g transform="translate(14.798438 107.066531)rotate(-90)scale(0.1 -0.1)">
      <use xlink:href="#DejaVuSans-65"/>
      <use x="68.408203" xlink:href="#DejaVuSans-120"/>
      <use x="127.587891" xlink:href="#DejaVuSans-105"/>
      <use x="155.371094" xlink:href="#DejaVuSans-115"/>
      <use x="207.470703" xlink:href="#DejaVuSans-32"/>
      <use x="239.257812" xlink:href="#DejaVuSans-67"/>
      <use x="309.082031" xlink:href="#DejaVuSans-111"/>
      <use x="370.263672" xlink:href="#DejaVuSans-110"/>
      <use x="433.642578" xlink:href="#DejaVuSans-116"/>
      <use x="472.851562" xlink:href="#DejaVuSans-97"/>
      <use x="534.130859" xlink:href="#DejaVuSans-105"/>
      <use x="561.914062" xlink:href="#DejaVuSans-110"/>
      <use x="625.292969" xlink:href="#DejaVuSans-101"/>
      <use x="686.816406" xlink:href="#DejaVuSans-114"/>
     </g>
    </g>
   </g>
   <g id="line2d_1">
    <path clip-path="url(#pee40eadbae)" d="M 31.771437 81.935284 
L 37.218093 40.782619 
L 42.664749 56.404502 
L 48.111405 65.927854 
L 53.558061 97.542962 
L 59.004717 97.544685 
L 64.451373 104.537874 
L 69.898029 46.820672 
L 75.344685 65.752399 
L 80.791341 58.113062 
L 86.237997 107.216211 
L 91.684653 39.411596 
L 97.131309 49.230054 
L 102.577965 93.520329 
L 108.024621 95.699771 
L 113.471277 95.586954 
L 118.917933 86.95624 
L 124.364589 71.206234 
L 129.811245 77.835196 
L 135.257901 87.885687 
L 140.704557 64.985456 
L 146.151213 98.723228 
L 151.597869 87.820298 
L 157.044525 82.519409 
L 162.491181 76.112095 
L 167.937837 52.60603 
L 173.384493 94.424937 
L 178.831149 71.957757 
L 184.277805 66.373819 
L 189.724461 105.368763 
L 195.171117 65.293154 
L 200.617773 96.506922 
L 206.064429 104.040193 
L 211.511085 40.913237 
L 216.957741 39.717135 
L 222.404397 50.947465 
L 227.851053 86.929704 
L 233.297709 101.710304 
L 238.744365 59.815778 
L 244.191021 77.248986 
L 249.637677 99.969979 
L 255.084333 73.318922 
L 260.530989 106.230272 
L 265.977645 43.739137 
L 271.424301 90.203336 
L 276.870957 61.366446 
L 282.317613 86.422786 
L 287.764269 71.541099 
" style="fill:none;stroke:#d3d3d3;stroke-linecap:square;stroke-opacity:0.85;stroke-width:1.5;"/>
    <defs>
     <path d="M 0 3 
C 0.795609 3 1.55874 2.683901 2.12132 2.12132 
C 2.683901 1.55874 3 0.795609 3 0 
C 3 -0.795609 2.683901 -1.55874 2.12132 -2.12132 
C 1.55874 -2.683901 0.795609 -3 0 -3 
C -0.795609 -3 -1.55874 -2.683901 -2.12132 -2.12132 
C -2.683901 -1.55874 -3 -0.795609 -3 0 
C -3 0.795609 -2.683901 1.55874 -2.12132 2.12132 
C -1.55874 2.683901 -0.795609 3 0 3 
z
" id="m49f3493bad" style="stroke:#d3d3d3;stroke-opacity:0.85;"/>
    </defs>
    <g clip-path="url(#pee40eadbae)">
     <use style="fill:#d3d3d3;fill-opacity:0.85;stroke:#d3d3d3;stroke-opacity:0.85;" x="31.771437" xlink:href="#m49f3493bad" y="81.935284"/>
     <use style="fill:#d3d3d3;fill-opacity:0.85;stroke:#d3d3d3;stroke-opacity:0.85;" x="37.218093" xlink:href="#m49f3493bad" y="40.782619"/>
     <use style="fill:#d3d3d3;fill-opacity:0.85;stroke:#d3d3d3;stroke-opacity:0.85;" x="42.664749" xlink:href="#m49f3493bad" y="56.404502"/>
     <use style="fill:#d3d3d3;fill-opacity:0.85;stroke:#d3d3d3;stroke-opacity:0.85;" x="48.111405" xlink:href="#m49f3493bad" y="65.927854"/>
     <use style="fill:#d3d3d3;fill-opacity:0.85;stroke:#d3d3d3;stroke-opacity:0.85;" x="53.558061" xlink:href="#m49f3493bad" y="97.542962"/>
     <use style="fill:#d3d3d3;fill-opacity:0.85;stroke:#d3d3d3;stroke-opacity:0.85;" x="59.004717" xlink:href="#m49f3493bad" y="97.544685"/>
     <use style="fill:#d3d3d3;fill-opacity:0.85;stroke:#d3d3d3;stroke-opacity:0.85;" x="64.451373" xlink:href="#m49f3493bad" y="104.537874"/>
     <use style="fill:#d3d3d3;fill-opacity:0.85;stroke:#d3d3d3;stroke-opacity:0.85;" x="69.898029" xlink:href="#m49f3493bad" y="46.820672"/>
     <use style="fill:#d3d3d3;fill-opacity:0.85;stroke:#d3d3d3;stroke-opacity:0.85;" x="75.344685" xlink:href="#m49f3493bad" y="65.752399"/>
     <use style="fill:#d3d3d3;fill-opacity:0.85;stroke:#d3d3d3;stroke-opacity:0.85;" x="80.791341" xlink:href="#m49f3493bad" y="58.113062"/>
     <use style="fill:#d3d3d3;fill-opacity:0.85;stroke:#d3d3d3;stroke-opacity:0.85;" x="86.237997" xlink:href="#m49f3493bad" y="107.216211"/>
     <use style="fill:#d3d3d3;fill-opacity:0.85;stroke:#d3d3d3;stroke-opacity:0.85;" x="91.684653" xlink:href="#m49f3493bad" y="39.411596"/>
     <use style="fill:#d3d3d3;fill-opacity:0.85;stroke:#d3d3d3;stroke-opacity:0.85;" x="97.131309" xlink:href="#m49f3493bad" y="49.230054"/>
     <use style="fill:#d3d3d3;fill-opacity:0.85;stroke:#d3d3d3;stroke-opacity:0.85;" x="102.577965" xlink:href="#m49f3493bad" y="93.520329"/>
     <use style="fill:#d3d3d3;fill-opacity:0.85;stroke:#d3d3d3;stroke-opacity:0.85;" x="108.024621" xlink:href="#m49f3493bad" y="95.699771"/>
     <use style="fill:#d3d3d3;fill-opacity:0.85;stroke:#d3d3d3;stroke-opacity:0.85;" x="113.471277" xlink:href="#m49f3493bad" y="95.586954"/>
     <use style="fill:#d3d3d3;fill-opacity:0.85;stroke:#d3d3d3;stroke-opacity:0.85;" x="118.917933" xlink:href="#m49f3493bad" y="86.95624"/>
     <use style="fill:#d3d3d3;fill-opacity:0.85;stroke:#d3d3d3;stroke-opacity:0.85;" x="124.364589" xlink:href="#m49f3493bad" y="71.206234"/>
     <use style="fill:#d3d3d3;fill-opacity:0.85;stroke:#d3d3d3;stroke-opacity:0.85;" x="129.811245" xlink:href="#m49f3493bad" y="77.835196"/>
     <use style="fill:#d3d3d3;fill-opacity:0.85;stroke:#d3d3d3;stroke-opacity:0.85;" x="135.257901" xlink:href="#m49f3493bad" y="87.885687"/>
     <use style="fill:#d3d3d3;fill-opacity:0.85;stroke:#d3d3d3;stroke-opacity:0.85;" x="140.704557" xlink:href="#m49f3493bad" y="64.985456"/>
     <use style="fill:#d3d3d3;fill-opacity:0.85;stroke:#d3d3d3;stroke-opacity:0.85;" x="146.151213" xlink:href="#m49f3493bad" y="98.723228"/>
     <use style="fill:#d3d3d3;fill-opacity:0.85;stroke:#d3d3d3;stroke-opacity:0.85;" x="151.597869" xlink:href="#m49f3493bad" y="87.820298"/>
     <use style="fill:#d3d3d3;fill-opacity:0.85;stroke:#d3d3d3;stroke-opacity:0.85;" x="157.044525" xlink:href="#m49f3493bad" y="82.519409"/>
     <use style="fill:#d3d3d3;fill-opacity:0.85;stroke:#d3d3d3;stroke-opacity:0.85;" x="162.491181" xlink:href="#m49f3493bad" y="76.112095"/>
     <use style="fill:#d3d3d3;fill-opacity:0.85;stroke:#d3d3d3;stroke-opacity:0.85;" x="167.937837" xlink:href="#m49f3493bad" y="52.60603"/>
     <use style="fill:#d3d3d3;fill-opacity:0.85;stroke:#d3d3d3;stroke-opacity:0.85;" x="173.384493" xlink:href="#m49f3493bad" y="94.424937"/>
     <use style="fill:#d3d3d3;fill-opacity:0.85;stroke:#d3d3d3;stroke-opacity:0.85;" x="178.831149" xlink:href="#m49f3493bad" y="71.957757"/>
     <use style="fill:#d3d3d3;fill-opacity:0.85;stroke:#d3d3d3;stroke-opacity:0.85;" x="184.277805" xlink:href="#m49f3493bad" y="66.373819"/>
     <use style="fill:#d3d3d3;fill-opacity:0.85;stroke:#d3d3d3;stroke-opacity:0.85;" x="189.724461" xlink:href="#m49f3493bad" y="105.368763"/>
     <use style="fill:#d3d3d3;fill-opacity:0.85;stroke:#d3d3d3;stroke-opacity:0.85;" x="195.171117" xlink:href="#m49f3493bad" y="65.293154"/>
     <use style="fill:#d3d3d3;fill-opacity:0.85;stroke:#d3d3d3;stroke-opacity:0.85;" x="200.617773" xlink:href="#m49f3493bad" y="96.506922"/>
     <use style="fill:#d3d3d3;fill-opacity:0.85;stroke:#d3d3d3;stroke-opacity:0.85;" x="206.064429" xlink:href="#m49f3493bad" y="104.040193"/>
     <use style="fill:#d3d3d3;fill-opacity:0.85;stroke:#d3d3d3;stroke-opacity:0.85;" x="211.511085" xlink:href="#m49f3493bad" y="40.913237"/>
     <use style="fill:#d3d3d3;fill-opacity:0.85;stroke:#d3d3d3;stroke-opacity:0.85;" x="216.957741" xlink:href="#m49f3493bad" y="39.717135"/>
     <use style="fill:#d3d3d3;fill-opacity:0.85;stroke:#d3d3d3;stroke-opacity:0.85;" x="222.404397" xlink:href="#m49f3493bad" y="50.947465"/>
     <use style="fill:#d3d3d3;fill-opacity:0.85;stroke:#d3d3d3;stroke-opacity:0.85;" x="227.851053" xlink:href="#m49f3493bad" y="86.929704"/>
     <use style="fill:#d3d3d3;fill-opacity:0.85;stroke:#d3d3d3;stroke-opacity:0.85;" x="233.297709" xlink:href="#m49f3493bad" y="101.710304"/>
     <use style="fill:#d3d3d3;fill-opacity:0.85;stroke:#d3d3d3;stroke-opacity:0.85;" x="238.744365" xlink:href="#m49f3493bad" y="59.815778"/>
     <use style="fill:#d3d3d3;fill-opacity:0.85;stroke:#d3d3d3;stroke-opacity:0.85;" x="244.191021" xlink:href="#m49f3493bad" y="77.248986"/>
     <use style="fill:#d3d3d3;fill-opacity:0.85;stroke:#d3d3d3;stroke-opacity:0.85;" x="249.637677" xlink:href="#m49f3493bad" y="99.969979"/>
     <use style="fill:#d3d3d3;fill-opacity:0.85;stroke:#d3d3d3;stroke-opacity:0.85;" x="255.084333" xlink:href="#m49f3493bad" y="73.318922"/>
     <use style="fill:#d3d3d3;fill-opacity:0.85;stroke:#d3d3d3;stroke-opacity:0.85;" x="260.530989" xlink:href="#m49f3493bad" y="106.230272"/>
     <use style="fill:#d3d3d3;fill-opacity:0.85;stroke:#d3d3d3;stroke-opacity:0.85;" x="265.977645" xlink:href="#m49f3493bad" y="43.739137"/>
     <use style="fill:#d3d3d3;fill-opacity:0.85;stroke:#d3d3d3;stroke-opacity:0.85;" x="271.424301" xlink:href="#m49f3493bad" y="90.203336"/>
     <use style="fill:#d3d3d3;fill-opacity:0.85;stroke:#d3d3d3;stroke-opacity:0.85;" x="276.870957" xlink:href="#m49f3493bad" y="61.366446"/>
     <use style="fill:#d3d3d3;fill-opacity:0.85;stroke:#d3d3d3;stroke-opacity:0.85;" x="282.317613" xlink:href="#m49f3493bad" y="86.422786"/>
     <use style="fill:#d3d3d3;fill-opacity:0.85;stroke:#d3d3d3;stroke-opacity:0.85;" x="287.764269" xlink:href="#m49f3493bad" y="71.541099"/>
    </g>
   </g>
   <g id="patch_3">
    <path d="M 20.878125 128.270438 
L 20.878125 13.070438 
" style="fill:none;stroke:#000000;stroke-linecap:square;stroke-linejoin:miter;stroke-width:0.8;"/>
   </g>
   <g id="patch_4">
    <path d="M 297.358125 128.270438 
L 297.358125 13.070438 
" style="fill:none;stroke:#000000;stroke-linecap:square;stroke-linejoin:miter;stroke-width:0.8;"/>
   </g>
   <g id="patch_5">
    <path d="M 20.878125 128.270438 
L 297.358125 128.270438 
" style="fill:none;stroke:#000000;stroke-linecap:square;stroke-linejoin:miter;stroke-width:0.8;"/>
   </g>
   <g id="patch_6">
    <path d="M 20.878125 13.070438 
L 297.358125 13.070438 
" style="fill:none;stroke:#000000;stroke-linecap:square;stroke-linejoin:miter;stroke-width:0.8;"/>
   </g>
   <g id="text_3">
    <g id="patch_7">
     <path d="M 208.275275 20.878125 
L 292.437775 20.878125 
L 292.437775 3.2 
L 208.275275 3.2 
z
" style="fill:#ffffff;stroke:#ffffff;stroke-linejoin:miter;"/>
    </g>
    <!-- Axes Container -->
    <g transform="translate(212.275275 14.798438)scale(0.1 -0.1)">
     <use xlink:href="#DejaVuSans-65"/>
     <use x="68.408203" xlink:href="#DejaVuSans-120"/>
     <use x="127.541016" xlink:href="#DejaVuSans-101"/>
     <use x="189.064453" xlink:href="#DejaVuSans-115"/>
     <use x="241.164062" xlink:href="#DejaVuSans-32"/>
     <use x="272.951172" xlink:href="#DejaVuSans-67"/>
     <use x="342.775391" xlink:href="#DejaVuSans-111"/>
     <use x="403.957031" xlink:href="#DejaVuSans-110"/>
     <use x="467.335938" xlink:href="#DejaVuSans-116"/>
     <use x="506.544922" xlink:href="#DejaVuSans-97"/>
     <use x="567.824219" xlink:href="#DejaVuSans-105"/>
     <use x="595.607422" xlink:href="#DejaVuSans-110"/>
     <use x="658.986328" xlink:href="#DejaVuSans-101"/>
     <use x="720.509766" xlink:href="#DejaVuSans-114"/>
    </g>
   </g>
   <g id="text_4">
    <g id="patch_8">
     <path d="M 19.678125 22.958344 
L 23.031563 22.958344 
L 23.031563 17.654906 
L 19.678125 17.654906 
z
" style="fill:#ffffff;stroke:#ffffff;stroke-linejoin:miter;"/>
    </g>
    <!--   -->
    <g transform="translate(20.878125 21.134438)scale(0.03 -0.03)">
     <use xlink:href="#DejaVuSans-32"/>
    </g>
   </g>
   <g id="text_5">
    <g id="patch_9">
     <path d="M 285.928365 130.094344 
L 289.281803 130.094344 
L 289.281803 124.790906 
L 285.928365 124.790906 
z
" style="fill:#ffffff;stroke:#ffffff;stroke-linejoin:miter;"/>
    </g>
    <!--   -->
    <g transform="translate(287.128365 128.270438)scale(0.03 -0.03)">
     <use xlink:href="#DejaVuSans-32"/>
    </g>
   </g>
   <g id="patch_10">
    <path clip-path="url(#pee40eadbae)" d="M 20.878125 25.972838 
L 25.025325 32.884838 
L 21.016365 32.884838 
L 21.016365 128.270438 
L 20.739885 128.270438 
L 20.739885 32.884838 
L 16.730925 32.884838 
z
" style="stroke:#000000;stroke-linejoin:miter;stroke-width:3;"/>
   </g>
   <g id="patch_11">
    <path clip-path="url(#pee40eadbae)" d="M 283.395885 128.270438 
L 276.483885 132.302438 
L 276.483885 128.328038 
L 20.878125 128.328038 
L 20.878125 128.212838 
L 276.483885 128.212838 
L 276.483885 124.238438 
z
" style="stroke:#000000;stroke-linejoin:miter;stroke-width:3;"/>
   </g>
  </g>
 </g>
 <defs>
  <clipPath id="pee40eadbae">
   <rect height="115.2" width="276.48" x="20.878125" y="13.070438"/>
  </clipPath>
 </defs>
</svg>
